<?xml version="1.0" encoding="UTF-8"?>
<svg width="45px" height="22px" viewBox="0 0 45 22" version="1.1" xmlns="http://www.w3.org/2000/svg" xmlns:xlink="http://www.w3.org/1999/xlink">
    <!-- Generator: Sketch 55.2 (78181) - https://sketchapp.com -->
    <title>Communities</title>
    <desc>Created with Sketch.</desc>
    <g id="Page-1" stroke="none" stroke-width="1" fill="none" fill-rule="evenodd">
        <g id="Overview-Dashboard" transform="translate(-386.000000, -246.000000)">
            <g id="Communities" transform="translate(386.000000, 246.000000)">
                <g id="Group-15-Copy" fill="#238E58">
                    <path d="M8.5,7 C6.56700338,7 5,5.43299662 5,3.5 C5,1.56700338 6.56700338,0 8.5,0 C10.4329966,0 12,1.56700338 12,3.5 C12,5.43299662 10.4329966,7 8.5,7 Z M3,9 L14,9 C15.6568542,9 17,10.3431458 17,12 L17,13 C17,14.6568542 15.6568542,16 14,16 L3,16 C1.34314575,16 1.09108455e-15,14.6568542 0,13 L0,12 C-2.02906125e-16,10.3431458 1.34314575,9 3,9 Z" id="Male"></path>
                </g>
                <g id="Group-15-Copy-2" transform="translate(28.000000, 0.000000)" fill="#238E58">
                    <path d="M8.5,7 C6.56700338,7 5,5.43299662 5,3.5 C5,1.56700338 6.56700338,0 8.5,0 C10.4329966,0 12,1.56700338 12,3.5 C12,5.43299662 10.4329966,7 8.5,7 Z M3,9 L14,9 C15.6568542,9 17,10.3431458 17,12 L17,13 C17,14.6568542 15.6568542,16 14,16 L3,16 C1.34314575,16 1.09108455e-15,14.6568542 0,13 L0,12 C-2.02906125e-16,10.3431458 1.34314575,9 3,9 Z" id="Male"></path>
                </g>
                <g id="Group-15" transform="translate(14.000000, 6.000000)" fill="#EF8739">
                    <path d="M8.5,7 C6.56700338,7 5,5.43299662 5,3.5 C5,1.56700338 6.56700338,0 8.5,0 C10.4329966,0 12,1.56700338 12,3.5 C12,5.43299662 10.4329966,7 8.5,7 Z M3,9 L14,9 C15.6568542,9 17,10.3431458 17,12 L17,13 C17,14.6568542 15.6568542,16 14,16 L3,16 C1.34314575,16 1.09108455e-15,14.6568542 0,13 L0,12 C-2.02906125e-16,10.3431458 1.34314575,9 3,9 Z" id="Male"></path>
                </g>
            </g>
        </g>
    </g>
</svg>