<?xml version="1.0" encoding="UTF-8"?>
<svg width="24px" height="39px" viewBox="0 0 24 39" version="1.1" xmlns="http://www.w3.org/2000/svg" xmlns:xlink="http://www.w3.org/1999/xlink">
    <!-- Generator: Sketch 55.2 (78181) - https://sketchapp.com -->
    <title>Youth</title>
    <desc>Created with Sketch.</desc>
    <g id="Page-1" stroke="none" stroke-width="1" fill="none" fill-rule="evenodd">
        <g id="Overview-Dashboard" transform="translate(-289.000000, -211.000000)" fill="#EF8739">
            <g id="Youth" transform="translate(289.000000, 211.000000)">
                <path d="M0.109066863,9.76000278 C1.51385011,12.7522998 9.25181601,16.7749468 9.25181601,23.2698712 C9.25181601,30.0409728 9.25181601,33.7732278 9.25181601,36.1658416 C10.598873,39.113023 13.1689568,39.113023 14.5888004,36.1658416 C14.5888004,33.5572665 14.5888004,30.9214907 14.5888004,23.2698712 C14.1741796,17.7407901 23.0886668,11.7293637 23.7987812,9.76000278 C24.3789375,8.07579225 23.7987812,5.86526594 20.8136704,6.00643575 C18.9993041,6.73039812 14.7924372,13.4466772 12.0506168,13.4898548 C9.3087963,13.5330323 7.14320576,9.38067512 3.46838318,6.18105541 C1.13367086,5.5996851 -0.438037026,6.81263436 0.109066863,9.76000278 Z" id="Path"></path>
                <circle id="Oval" cx="12" cy="4" r="4"></circle>
            </g>
        </g>
    </g>
</svg>