<?xml version="1.0" encoding="UTF-8"?>
<svg width="44px" height="27px" viewBox="0 0 44 27" version="1.1" xmlns="http://www.w3.org/2000/svg" xmlns:xlink="http://www.w3.org/1999/xlink">
    <!-- Generator: Sketch 55.2 (78181) - https://sketchapp.com -->
    <title>Activities</title>
    <desc>Created with Sketch.</desc>
    <g id="Page-1" stroke="none" stroke-width="1" fill="none" fill-rule="evenodd">
        <g id="Overview-Dashboard" transform="translate(-59.000000, -595.000000)">
            <g id="Activities" transform="translate(59.000000, 595.000000)">
                <path d="M14.9725356,22 C14.9906833,22.1641669 15,22.3309955 15,22.5 C15,24.9852814 12.9852814,27 10.5,27 C8.01471863,27 6,24.9852814 6,22.5 C6,22.3309955 6.00931666,22.1641669 6.02746439,22 L-2.30926389e-14,22 L-2.30926389e-14,1 L21,1 L21,7.02746439 C20.8358331,7.00931666 20.6690045,7 20.5,7 C18.0147186,7 16,9.01471863 16,11.5 C16,13.9852814 18.0147186,16 20.5,16 C20.6690045,16 20.8358331,15.9906833 21,15.9725356 L21,22 L14.9725356,22 Z" id="Combined-Shape" fill="#238E58"></path>
                <path d="M34.6855135,19.8076923 C34.7045254,19.9781733 34.7142857,20.1514184 34.7142857,20.3269231 C34.7142857,22.9077922 32.6036281,25 30,25 C27.3963719,25 25.2857143,22.9077922 25.2857143,20.3269231 C25.2857143,20.1514184 25.2954746,19.9781733 25.3144865,19.8076923 L19,19.8076923 L19,-2 L41,-2 L41,4.25928994 C40.8280156,4.24044422 40.6532429,4.23076923 40.4761905,4.23076923 C37.8725624,4.23076923 35.7619048,6.32297703 35.7619048,8.90384615 C35.7619048,11.4847153 37.8725624,13.5769231 40.4761905,13.5769231 C40.6532429,13.5769231 40.8280156,13.5672481 41,13.5484024 L41,19.8076923 L34.6855135,19.8076923 Z" id="Combined-Shape-Copy" fill="#EF8739" transform="translate(30.000000, 11.500000) rotate(90.000000) translate(-30.000000, -11.500000) "></path>
            </g>
        </g>
    </g>
</svg>